%TF.GenerationSoftware,KiCad,Pcbnew,9.0.7*%
%TF.CreationDate,2026-08-29T19:42:35-04:00*%
%TF.ProjectId,Receiver_Out,52656365-6976-4657-925f-4f75742e6b69,v3*%
%TF.SameCoordinates,Original*%
%TF.FileFunction,Soldermask,Bot*%
%TF.FilePolarity,Negative*%
%FSLAX46Y46*%
G04 Gerber Fmt 4.6, Leading zero omitted, Abs format (unit mm)*
G04 Created by KiCad (PCBNEW 9.0.7) date 2026-08-29 19:42:35*
%MOMM*%
%LPD*%
G01*
G04 APERTURE LIST*
G04 APERTURE END LIST*
G36*
X-106446166Y-18430864D02*
G01*
X-106413075Y-18452975D01*
X-106390964Y-18486066D01*
X-106383200Y-18525100D01*
X-106383200Y-21025100D01*
X-106390964Y-21064134D01*
X-106413075Y-21097225D01*
X-106446166Y-21119336D01*
X-106485200Y-21127100D01*
X-107985200Y-21127100D01*
X-108024234Y-21119336D01*
X-108057325Y-21097225D01*
X-108079436Y-21064134D01*
X-108087200Y-21025100D01*
X-108087200Y-18525100D01*
X-108079436Y-18486066D01*
X-108057325Y-18452975D01*
X-108024234Y-18430864D01*
X-107985200Y-18423100D01*
X-106485200Y-18423100D01*
X-106446166Y-18430864D01*
G37*
G36*
X-100858166Y-18430864D02*
G01*
X-100825075Y-18452975D01*
X-100802964Y-18486066D01*
X-100795200Y-18525100D01*
X-100795200Y-21025100D01*
X-100802964Y-21064134D01*
X-100825075Y-21097225D01*
X-100858166Y-21119336D01*
X-100897200Y-21127100D01*
X-102397200Y-21127100D01*
X-102436234Y-21119336D01*
X-102469325Y-21097225D01*
X-102491436Y-21064134D01*
X-102499200Y-21025100D01*
X-102499200Y-18525100D01*
X-102491436Y-18486066D01*
X-102469325Y-18452975D01*
X-102436234Y-18430864D01*
X-102397200Y-18423100D01*
X-100897200Y-18423100D01*
X-100858166Y-18430864D01*
G37*
G36*
X-95270166Y-18430864D02*
G01*
X-95237075Y-18452975D01*
X-95214964Y-18486066D01*
X-95207200Y-18525100D01*
X-95207200Y-21025100D01*
X-95214964Y-21064134D01*
X-95237075Y-21097225D01*
X-95270166Y-21119336D01*
X-95309200Y-21127100D01*
X-96809200Y-21127100D01*
X-96848234Y-21119336D01*
X-96881325Y-21097225D01*
X-96903436Y-21064134D01*
X-96911200Y-21025100D01*
X-96911200Y-18525100D01*
X-96903436Y-18486066D01*
X-96881325Y-18452975D01*
X-96848234Y-18430864D01*
X-96809200Y-18423100D01*
X-95309200Y-18423100D01*
X-95270166Y-18430864D01*
G37*
G36*
X-112034166Y-18415864D02*
G01*
X-112001075Y-18437975D01*
X-111978964Y-18471066D01*
X-111971200Y-18510100D01*
X-111971200Y-21010100D01*
X-111978964Y-21049134D01*
X-112001075Y-21082225D01*
X-112034166Y-21104336D01*
X-112073200Y-21112100D01*
X-113573200Y-21112100D01*
X-113612234Y-21104336D01*
X-113645325Y-21082225D01*
X-113667436Y-21049134D01*
X-113675200Y-21010100D01*
X-113675200Y-18510100D01*
X-113667436Y-18471066D01*
X-113645325Y-18437975D01*
X-113612234Y-18415864D01*
X-113573200Y-18408100D01*
X-112073200Y-18408100D01*
X-112034166Y-18415864D01*
G37*
G36*
X-128015333Y-10771827D02*
G01*
X-127775144Y-10836186D01*
X-127545409Y-10931345D01*
X-127330061Y-11055676D01*
X-127132784Y-11207053D01*
X-126956953Y-11382884D01*
X-126805576Y-11580161D01*
X-126681245Y-11795509D01*
X-126586086Y-12025244D01*
X-126521727Y-12265433D01*
X-126489270Y-12511969D01*
X-126489270Y-12760631D01*
X-126521727Y-13007167D01*
X-126586086Y-13247356D01*
X-126681245Y-13477091D01*
X-126805576Y-13692439D01*
X-126956953Y-13889716D01*
X-127132784Y-14065547D01*
X-127330061Y-14216924D01*
X-127545409Y-14341255D01*
X-127775144Y-14436414D01*
X-128015333Y-14500773D01*
X-128261869Y-14533230D01*
X-128510531Y-14533230D01*
X-128757067Y-14500773D01*
X-128997256Y-14436414D01*
X-129226991Y-14341255D01*
X-129442339Y-14216924D01*
X-129639616Y-14065547D01*
X-129815447Y-13889716D01*
X-129966824Y-13692439D01*
X-130091155Y-13477091D01*
X-130186314Y-13247356D01*
X-130250673Y-13007167D01*
X-130283130Y-12760631D01*
X-130283130Y-12511969D01*
X-130250673Y-12265433D01*
X-130186314Y-12025244D01*
X-130091155Y-11795509D01*
X-129966824Y-11580161D01*
X-129815447Y-11382884D01*
X-129639616Y-11207053D01*
X-129442339Y-11055676D01*
X-129226991Y-10931345D01*
X-128997256Y-10836186D01*
X-128757067Y-10771827D01*
X-128510531Y-10739370D01*
X-128261869Y-10739370D01*
X-128015333Y-10771827D01*
G37*
G36*
X-77215333Y-10771827D02*
G01*
X-76975144Y-10836186D01*
X-76745409Y-10931345D01*
X-76530061Y-11055676D01*
X-76332784Y-11207053D01*
X-76156953Y-11382884D01*
X-76005576Y-11580161D01*
X-75881245Y-11795509D01*
X-75786086Y-12025244D01*
X-75721727Y-12265433D01*
X-75689270Y-12511969D01*
X-75689270Y-12760631D01*
X-75721727Y-13007167D01*
X-75786086Y-13247356D01*
X-75881245Y-13477091D01*
X-76005576Y-13692439D01*
X-76156953Y-13889716D01*
X-76332784Y-14065547D01*
X-76530061Y-14216924D01*
X-76745409Y-14341255D01*
X-76975144Y-14436414D01*
X-77215333Y-14500773D01*
X-77461869Y-14533230D01*
X-77710531Y-14533230D01*
X-77957067Y-14500773D01*
X-78197256Y-14436414D01*
X-78426991Y-14341255D01*
X-78642339Y-14216924D01*
X-78839616Y-14065547D01*
X-79015447Y-13889716D01*
X-79166824Y-13692439D01*
X-79291155Y-13477091D01*
X-79386314Y-13247356D01*
X-79450673Y-13007167D01*
X-79483130Y-12760631D01*
X-79483130Y-12511969D01*
X-79450673Y-12265433D01*
X-79386314Y-12025244D01*
X-79291155Y-11795509D01*
X-79166824Y-11580161D01*
X-79015447Y-11382884D01*
X-78839616Y-11207053D01*
X-78642339Y-11055676D01*
X-78426991Y-10931345D01*
X-78197256Y-10836186D01*
X-77957067Y-10771827D01*
X-77710531Y-10739370D01*
X-77461869Y-10739370D01*
X-77215333Y-10771827D01*
G37*
G36*
X-104416166Y-8280864D02*
G01*
X-104383075Y-8302975D01*
X-104360964Y-8336066D01*
X-104353200Y-8375100D01*
X-104353200Y-10875100D01*
X-104360964Y-10914134D01*
X-104383075Y-10947225D01*
X-104416166Y-10969336D01*
X-104455200Y-10977100D01*
X-105955200Y-10977100D01*
X-105994234Y-10969336D01*
X-106027325Y-10947225D01*
X-106049436Y-10914134D01*
X-106057200Y-10875100D01*
X-106057200Y-8375100D01*
X-106049436Y-8336066D01*
X-106027325Y-8302975D01*
X-105994234Y-8280864D01*
X-105955200Y-8273100D01*
X-104455200Y-8273100D01*
X-104416166Y-8280864D01*
G37*
G36*
X-98828166Y-8280864D02*
G01*
X-98795075Y-8302975D01*
X-98772964Y-8336066D01*
X-98765200Y-8375100D01*
X-98765200Y-10875100D01*
X-98772964Y-10914134D01*
X-98795075Y-10947225D01*
X-98828166Y-10969336D01*
X-98867200Y-10977100D01*
X-100367200Y-10977100D01*
X-100406234Y-10969336D01*
X-100439325Y-10947225D01*
X-100461436Y-10914134D01*
X-100469200Y-10875100D01*
X-100469200Y-8375100D01*
X-100461436Y-8336066D01*
X-100439325Y-8302975D01*
X-100406234Y-8280864D01*
X-100367200Y-8273100D01*
X-98867200Y-8273100D01*
X-98828166Y-8280864D01*
G37*
G36*
X-93240166Y-8280864D02*
G01*
X-93207075Y-8302975D01*
X-93184964Y-8336066D01*
X-93177200Y-8375100D01*
X-93177200Y-10875100D01*
X-93184964Y-10914134D01*
X-93207075Y-10947225D01*
X-93240166Y-10969336D01*
X-93279200Y-10977100D01*
X-94779200Y-10977100D01*
X-94818234Y-10969336D01*
X-94851325Y-10947225D01*
X-94873436Y-10914134D01*
X-94881200Y-10875100D01*
X-94881200Y-8375100D01*
X-94873436Y-8336066D01*
X-94851325Y-8302975D01*
X-94818234Y-8280864D01*
X-94779200Y-8273100D01*
X-93279200Y-8273100D01*
X-93240166Y-8280864D01*
G37*
G36*
X-110004166Y-8265864D02*
G01*
X-109971075Y-8287975D01*
X-109948964Y-8321066D01*
X-109941200Y-8360100D01*
X-109941200Y-10860100D01*
X-109948964Y-10899134D01*
X-109971075Y-10932225D01*
X-110004166Y-10954336D01*
X-110043200Y-10962100D01*
X-111543200Y-10962100D01*
X-111582234Y-10954336D01*
X-111615325Y-10932225D01*
X-111637436Y-10899134D01*
X-111645200Y-10860100D01*
X-111645200Y-8360100D01*
X-111637436Y-8321066D01*
X-111615325Y-8287975D01*
X-111582234Y-8265864D01*
X-111543200Y-8258100D01*
X-110043200Y-8258100D01*
X-110004166Y-8265864D01*
G37*
G36*
X-125096683Y-2867182D02*
G01*
X-125080138Y-2878238D01*
X-125069082Y-2894783D01*
X-125065200Y-2914300D01*
X-125065200Y-4614300D01*
X-125069082Y-4633817D01*
X-125080138Y-4650362D01*
X-125096683Y-4661418D01*
X-125116200Y-4665300D01*
X-126816200Y-4665300D01*
X-126835717Y-4661418D01*
X-126852262Y-4650362D01*
X-126863318Y-4633817D01*
X-126867200Y-4614300D01*
X-126867200Y-2914300D01*
X-126863318Y-2894783D01*
X-126852262Y-2878238D01*
X-126835717Y-2867182D01*
X-126816200Y-2863300D01*
X-125116200Y-2863300D01*
X-125096683Y-2867182D01*
G37*
G36*
X-82432883Y-1465142D02*
G01*
X-82416338Y-1476198D01*
X-82405282Y-1492743D01*
X-82401400Y-1512260D01*
X-82401400Y-4512260D01*
X-82405282Y-4531777D01*
X-82416338Y-4548322D01*
X-82432883Y-4559378D01*
X-82452400Y-4563260D01*
X-85452400Y-4563260D01*
X-85471917Y-4559378D01*
X-85488462Y-4548322D01*
X-85499518Y-4531777D01*
X-85503400Y-4512260D01*
X-85503400Y-1512260D01*
X-85499518Y-1492743D01*
X-85488462Y-1476198D01*
X-85471917Y-1465142D01*
X-85452400Y-1461260D01*
X-82452400Y-1461260D01*
X-82432883Y-1465142D01*
G37*
G36*
X-113896106Y-2227216D02*
G01*
X-113728215Y-2296759D01*
X-113577117Y-2397719D01*
X-113448619Y-2526217D01*
X-113347659Y-2677315D01*
X-113278116Y-2845206D01*
X-113242664Y-3023438D01*
X-113242664Y-3205162D01*
X-113278116Y-3383394D01*
X-113347659Y-3551285D01*
X-113448619Y-3702383D01*
X-113577117Y-3830881D01*
X-113728215Y-3931841D01*
X-113896106Y-4001384D01*
X-114074338Y-4036836D01*
X-114256062Y-4036836D01*
X-114434294Y-4001384D01*
X-114602185Y-3931841D01*
X-114753283Y-3830881D01*
X-114881781Y-3702383D01*
X-114982741Y-3551285D01*
X-115052284Y-3383394D01*
X-115087736Y-3205162D01*
X-115087736Y-3023438D01*
X-115052284Y-2845206D01*
X-114982741Y-2677315D01*
X-114881781Y-2526217D01*
X-114753283Y-2397719D01*
X-114602185Y-2296759D01*
X-114434294Y-2227216D01*
X-114256062Y-2191764D01*
X-114074338Y-2191764D01*
X-113896106Y-2227216D01*
G37*
G36*
X-110396106Y-2227216D02*
G01*
X-110228215Y-2296759D01*
X-110077117Y-2397719D01*
X-109948619Y-2526217D01*
X-109847659Y-2677315D01*
X-109778116Y-2845206D01*
X-109742664Y-3023438D01*
X-109742664Y-3205162D01*
X-109778116Y-3383394D01*
X-109847659Y-3551285D01*
X-109948619Y-3702383D01*
X-110077117Y-3830881D01*
X-110228215Y-3931841D01*
X-110396106Y-4001384D01*
X-110574338Y-4036836D01*
X-110756062Y-4036836D01*
X-110934294Y-4001384D01*
X-111102185Y-3931841D01*
X-111253283Y-3830881D01*
X-111381781Y-3702383D01*
X-111482741Y-3551285D01*
X-111552284Y-3383394D01*
X-111587736Y-3205162D01*
X-111587736Y-3023438D01*
X-111552284Y-2845206D01*
X-111482741Y-2677315D01*
X-111381781Y-2526217D01*
X-111253283Y-2397719D01*
X-111102185Y-2296759D01*
X-110934294Y-2227216D01*
X-110756062Y-2191764D01*
X-110574338Y-2191764D01*
X-110396106Y-2227216D01*
G37*
G36*
X-106896106Y-2227216D02*
G01*
X-106728215Y-2296759D01*
X-106577117Y-2397719D01*
X-106448619Y-2526217D01*
X-106347659Y-2677315D01*
X-106278116Y-2845206D01*
X-106242664Y-3023438D01*
X-106242664Y-3205162D01*
X-106278116Y-3383394D01*
X-106347659Y-3551285D01*
X-106448619Y-3702383D01*
X-106577117Y-3830881D01*
X-106728215Y-3931841D01*
X-106896106Y-4001384D01*
X-107074338Y-4036836D01*
X-107256062Y-4036836D01*
X-107434294Y-4001384D01*
X-107602185Y-3931841D01*
X-107753283Y-3830881D01*
X-107881781Y-3702383D01*
X-107982741Y-3551285D01*
X-108052284Y-3383394D01*
X-108087736Y-3205162D01*
X-108087736Y-3023438D01*
X-108052284Y-2845206D01*
X-107982741Y-2677315D01*
X-107881781Y-2526217D01*
X-107753283Y-2397719D01*
X-107602185Y-2296759D01*
X-107434294Y-2227216D01*
X-107256062Y-2191764D01*
X-107074338Y-2191764D01*
X-106896106Y-2227216D01*
G37*
G36*
X-99547106Y-2227216D02*
G01*
X-99379215Y-2296759D01*
X-99228117Y-2397719D01*
X-99099619Y-2526217D01*
X-98998659Y-2677315D01*
X-98929116Y-2845206D01*
X-98893664Y-3023438D01*
X-98893664Y-3205162D01*
X-98929116Y-3383394D01*
X-98998659Y-3551285D01*
X-99099619Y-3702383D01*
X-99228117Y-3830881D01*
X-99379215Y-3931841D01*
X-99547106Y-4001384D01*
X-99725338Y-4036836D01*
X-99907062Y-4036836D01*
X-100085294Y-4001384D01*
X-100253185Y-3931841D01*
X-100404283Y-3830881D01*
X-100532781Y-3702383D01*
X-100633741Y-3551285D01*
X-100703284Y-3383394D01*
X-100738736Y-3205162D01*
X-100738736Y-3023438D01*
X-100703284Y-2845206D01*
X-100633741Y-2677315D01*
X-100532781Y-2526217D01*
X-100404283Y-2397719D01*
X-100253185Y-2296759D01*
X-100085294Y-2227216D01*
X-99907062Y-2191764D01*
X-99725338Y-2191764D01*
X-99547106Y-2227216D01*
G37*
G36*
X-96047106Y-2227216D02*
G01*
X-95879215Y-2296759D01*
X-95728117Y-2397719D01*
X-95599619Y-2526217D01*
X-95498659Y-2677315D01*
X-95429116Y-2845206D01*
X-95393664Y-3023438D01*
X-95393664Y-3205162D01*
X-95429116Y-3383394D01*
X-95498659Y-3551285D01*
X-95599619Y-3702383D01*
X-95728117Y-3830881D01*
X-95879215Y-3931841D01*
X-96047106Y-4001384D01*
X-96225338Y-4036836D01*
X-96407062Y-4036836D01*
X-96585294Y-4001384D01*
X-96753185Y-3931841D01*
X-96904283Y-3830881D01*
X-97032781Y-3702383D01*
X-97133741Y-3551285D01*
X-97203284Y-3383394D01*
X-97238736Y-3205162D01*
X-97238736Y-3023438D01*
X-97203284Y-2845206D01*
X-97133741Y-2677315D01*
X-97032781Y-2526217D01*
X-96904283Y-2397719D01*
X-96753185Y-2296759D01*
X-96585294Y-2227216D01*
X-96407062Y-2191764D01*
X-96225338Y-2191764D01*
X-96047106Y-2227216D01*
G37*
G36*
X-92547106Y-2227216D02*
G01*
X-92379215Y-2296759D01*
X-92228117Y-2397719D01*
X-92099619Y-2526217D01*
X-91998659Y-2677315D01*
X-91929116Y-2845206D01*
X-91893664Y-3023438D01*
X-91893664Y-3205162D01*
X-91929116Y-3383394D01*
X-91998659Y-3551285D01*
X-92099619Y-3702383D01*
X-92228117Y-3830881D01*
X-92379215Y-3931841D01*
X-92547106Y-4001384D01*
X-92725338Y-4036836D01*
X-92907062Y-4036836D01*
X-93085294Y-4001384D01*
X-93253185Y-3931841D01*
X-93404283Y-3830881D01*
X-93532781Y-3702383D01*
X-93633741Y-3551285D01*
X-93703284Y-3383394D01*
X-93738736Y-3205162D01*
X-93738736Y-3023438D01*
X-93703284Y-2845206D01*
X-93633741Y-2677315D01*
X-93532781Y-2526217D01*
X-93404283Y-2397719D01*
X-93253185Y-2296759D01*
X-93085294Y-2227216D01*
X-92907062Y-2191764D01*
X-92725338Y-2191764D01*
X-92547106Y-2227216D01*
G37*
G36*
X-122643901Y1332464D02*
G01*
X-122641915Y1331974D01*
X-122641209Y1331349D01*
X-122626602Y1325298D01*
X-122610200Y1285700D01*
X-122610200Y285700D01*
X-122619439Y263396D01*
X-122619927Y261415D01*
X-122620551Y260711D01*
X-122626602Y246102D01*
X-122635137Y239105D01*
X-122646263Y231689D01*
X-122649954Y227521D01*
X-122666200Y184684D01*
X-122666200Y-2614008D01*
X-122649231Y-2657685D01*
X-122647767Y-2659285D01*
X-122635137Y-2667705D01*
X-122621703Y-2687764D01*
X-122620326Y-2689269D01*
X-122620087Y-2690178D01*
X-122611287Y-2703317D01*
X-122610200Y-2714300D01*
X-122610200Y-3714300D01*
X-122619439Y-3736604D01*
X-122619927Y-3738585D01*
X-122620551Y-3739289D01*
X-122626602Y-3753898D01*
X-122666200Y-3770300D01*
X-122670770Y-3770300D01*
X-124151022Y-3770300D01*
X-124166200Y-3770300D01*
X-124188504Y-3761061D01*
X-124190486Y-3760573D01*
X-124191192Y-3759948D01*
X-124205798Y-3753898D01*
X-124222200Y-3714300D01*
X-124222200Y-2714300D01*
X-124212965Y-2692002D01*
X-124212474Y-2690014D01*
X-124211848Y-2689306D01*
X-124205798Y-2674702D01*
X-124197263Y-2667705D01*
X-124186140Y-2660289D01*
X-124182445Y-2656119D01*
X-124166200Y-2613283D01*
X-124166200Y185409D01*
X-124183170Y229088D01*
X-124184630Y230683D01*
X-124197263Y239105D01*
X-124210700Y259169D01*
X-124212075Y260671D01*
X-124212315Y261580D01*
X-124221113Y274717D01*
X-124222200Y285700D01*
X-124222200Y1285700D01*
X-124212965Y1307998D01*
X-124212474Y1309986D01*
X-124211848Y1310694D01*
X-124205798Y1325298D01*
X-124166200Y1341700D01*
X-122666200Y1341700D01*
X-122643901Y1332464D01*
G37*
G36*
X-125704654Y-362097D02*
G01*
X-125541472Y-429689D01*
X-125394612Y-527818D01*
X-125269718Y-652712D01*
X-125171589Y-799572D01*
X-125103997Y-962754D01*
X-125069539Y-1135987D01*
X-125069539Y-1312613D01*
X-125103997Y-1485846D01*
X-125171589Y-1649028D01*
X-125269718Y-1795888D01*
X-125394612Y-1920782D01*
X-125541472Y-2018911D01*
X-125704654Y-2086503D01*
X-125877887Y-2120961D01*
X-126054513Y-2120961D01*
X-126227746Y-2086503D01*
X-126390928Y-2018911D01*
X-126537788Y-1920782D01*
X-126662682Y-1795888D01*
X-126760811Y-1649028D01*
X-126828403Y-1485846D01*
X-126862861Y-1312613D01*
X-126862861Y-1135987D01*
X-126828403Y-962754D01*
X-126760811Y-799572D01*
X-126662682Y-652712D01*
X-126537788Y-527818D01*
X-126390928Y-429689D01*
X-126227746Y-362097D01*
X-126054513Y-327639D01*
X-125877887Y-327639D01*
X-125704654Y-362097D01*
G37*
G36*
X-125704654Y2177903D02*
G01*
X-125541472Y2110311D01*
X-125394612Y2012182D01*
X-125269718Y1887288D01*
X-125171589Y1740428D01*
X-125103997Y1577246D01*
X-125069539Y1404013D01*
X-125069539Y1227387D01*
X-125103997Y1054154D01*
X-125171589Y890972D01*
X-125269718Y744112D01*
X-125394612Y619218D01*
X-125541472Y521089D01*
X-125704654Y453497D01*
X-125877887Y419039D01*
X-126054513Y419039D01*
X-126227746Y453497D01*
X-126390928Y521089D01*
X-126537788Y619218D01*
X-126662682Y744112D01*
X-126760811Y890972D01*
X-126828403Y1054154D01*
X-126862861Y1227387D01*
X-126862861Y1404013D01*
X-126828403Y1577246D01*
X-126760811Y1740428D01*
X-126662682Y1887288D01*
X-126537788Y2012182D01*
X-126390928Y2110311D01*
X-126227746Y2177903D01*
X-126054513Y2212361D01*
X-125877887Y2212361D01*
X-125704654Y2177903D01*
G37*
G36*
X-113896106Y2772784D02*
G01*
X-113728215Y2703241D01*
X-113577117Y2602281D01*
X-113448619Y2473783D01*
X-113347659Y2322685D01*
X-113278116Y2154794D01*
X-113242664Y1976562D01*
X-113242664Y1794838D01*
X-113278116Y1616606D01*
X-113347659Y1448715D01*
X-113448619Y1297617D01*
X-113577117Y1169119D01*
X-113728215Y1068159D01*
X-113896106Y998616D01*
X-114074338Y963164D01*
X-114256062Y963164D01*
X-114434294Y998616D01*
X-114602185Y1068159D01*
X-114753283Y1169119D01*
X-114881781Y1297617D01*
X-114982741Y1448715D01*
X-115052284Y1616606D01*
X-115087736Y1794838D01*
X-115087736Y1976562D01*
X-115052284Y2154794D01*
X-114982741Y2322685D01*
X-114881781Y2473783D01*
X-114753283Y2602281D01*
X-114602185Y2703241D01*
X-114434294Y2772784D01*
X-114256062Y2808236D01*
X-114074338Y2808236D01*
X-113896106Y2772784D01*
G37*
G36*
X-110396106Y2772784D02*
G01*
X-110228215Y2703241D01*
X-110077117Y2602281D01*
X-109948619Y2473783D01*
X-109847659Y2322685D01*
X-109778116Y2154794D01*
X-109742664Y1976562D01*
X-109742664Y1794838D01*
X-109778116Y1616606D01*
X-109847659Y1448715D01*
X-109948619Y1297617D01*
X-110077117Y1169119D01*
X-110228215Y1068159D01*
X-110396106Y998616D01*
X-110574338Y963164D01*
X-110756062Y963164D01*
X-110934294Y998616D01*
X-111102185Y1068159D01*
X-111253283Y1169119D01*
X-111381781Y1297617D01*
X-111482741Y1448715D01*
X-111552284Y1616606D01*
X-111587736Y1794838D01*
X-111587736Y1976562D01*
X-111552284Y2154794D01*
X-111482741Y2322685D01*
X-111381781Y2473783D01*
X-111253283Y2602281D01*
X-111102185Y2703241D01*
X-110934294Y2772784D01*
X-110756062Y2808236D01*
X-110574338Y2808236D01*
X-110396106Y2772784D01*
G37*
G36*
X-106896106Y2772784D02*
G01*
X-106728215Y2703241D01*
X-106577117Y2602281D01*
X-106448619Y2473783D01*
X-106347659Y2322685D01*
X-106278116Y2154794D01*
X-106242664Y1976562D01*
X-106242664Y1794838D01*
X-106278116Y1616606D01*
X-106347659Y1448715D01*
X-106448619Y1297617D01*
X-106577117Y1169119D01*
X-106728215Y1068159D01*
X-106896106Y998616D01*
X-107074338Y963164D01*
X-107256062Y963164D01*
X-107434294Y998616D01*
X-107602185Y1068159D01*
X-107753283Y1169119D01*
X-107881781Y1297617D01*
X-107982741Y1448715D01*
X-108052284Y1616606D01*
X-108087736Y1794838D01*
X-108087736Y1976562D01*
X-108052284Y2154794D01*
X-107982741Y2322685D01*
X-107881781Y2473783D01*
X-107753283Y2602281D01*
X-107602185Y2703241D01*
X-107434294Y2772784D01*
X-107256062Y2808236D01*
X-107074338Y2808236D01*
X-106896106Y2772784D01*
G37*
G36*
X-99547106Y2772784D02*
G01*
X-99379215Y2703241D01*
X-99228117Y2602281D01*
X-99099619Y2473783D01*
X-98998659Y2322685D01*
X-98929116Y2154794D01*
X-98893664Y1976562D01*
X-98893664Y1794838D01*
X-98929116Y1616606D01*
X-98998659Y1448715D01*
X-99099619Y1297617D01*
X-99228117Y1169119D01*
X-99379215Y1068159D01*
X-99547106Y998616D01*
X-99725338Y963164D01*
X-99907062Y963164D01*
X-100085294Y998616D01*
X-100253185Y1068159D01*
X-100404283Y1169119D01*
X-100532781Y1297617D01*
X-100633741Y1448715D01*
X-100703284Y1616606D01*
X-100738736Y1794838D01*
X-100738736Y1976562D01*
X-100703284Y2154794D01*
X-100633741Y2322685D01*
X-100532781Y2473783D01*
X-100404283Y2602281D01*
X-100253185Y2703241D01*
X-100085294Y2772784D01*
X-99907062Y2808236D01*
X-99725338Y2808236D01*
X-99547106Y2772784D01*
G37*
G36*
X-96047106Y2772784D02*
G01*
X-95879215Y2703241D01*
X-95728117Y2602281D01*
X-95599619Y2473783D01*
X-95498659Y2322685D01*
X-95429116Y2154794D01*
X-95393664Y1976562D01*
X-95393664Y1794838D01*
X-95429116Y1616606D01*
X-95498659Y1448715D01*
X-95599619Y1297617D01*
X-95728117Y1169119D01*
X-95879215Y1068159D01*
X-96047106Y998616D01*
X-96225338Y963164D01*
X-96407062Y963164D01*
X-96585294Y998616D01*
X-96753185Y1068159D01*
X-96904283Y1169119D01*
X-97032781Y1297617D01*
X-97133741Y1448715D01*
X-97203284Y1616606D01*
X-97238736Y1794838D01*
X-97238736Y1976562D01*
X-97203284Y2154794D01*
X-97133741Y2322685D01*
X-97032781Y2473783D01*
X-96904283Y2602281D01*
X-96753185Y2703241D01*
X-96585294Y2772784D01*
X-96407062Y2808236D01*
X-96225338Y2808236D01*
X-96047106Y2772784D01*
G37*
G36*
X-92547106Y2772784D02*
G01*
X-92379215Y2703241D01*
X-92228117Y2602281D01*
X-92099619Y2473783D01*
X-91998659Y2322685D01*
X-91929116Y2154794D01*
X-91893664Y1976562D01*
X-91893664Y1794838D01*
X-91929116Y1616606D01*
X-91998659Y1448715D01*
X-92099619Y1297617D01*
X-92228117Y1169119D01*
X-92379215Y1068159D01*
X-92547106Y998616D01*
X-92725338Y963164D01*
X-92907062Y963164D01*
X-93085294Y998616D01*
X-93253185Y1068159D01*
X-93404283Y1169119D01*
X-93532781Y1297617D01*
X-93633741Y1448715D01*
X-93703284Y1616606D01*
X-93738736Y1794838D01*
X-93738736Y1976562D01*
X-93703284Y2154794D01*
X-93633741Y2322685D01*
X-93532781Y2473783D01*
X-93404283Y2602281D01*
X-93253185Y2703241D01*
X-93085294Y2772784D01*
X-92907062Y2808236D01*
X-92725338Y2808236D01*
X-92547106Y2772784D01*
G37*
G36*
X-83841918Y6783879D02*
G01*
X-83830710Y6783879D01*
X-83775512Y6775137D01*
X-83649866Y6758595D01*
X-83619211Y6750381D01*
X-83590326Y6745806D01*
X-83534780Y6727758D01*
X-83453933Y6706095D01*
X-83402350Y6684729D01*
X-83358858Y6670597D01*
X-83318114Y6649837D01*
X-83266530Y6628470D01*
X-83194047Y6586622D01*
X-83142005Y6560105D01*
X-83118345Y6542915D01*
X-83090861Y6527047D01*
X-82990326Y6449904D01*
X-82945106Y6417050D01*
X-82937181Y6409125D01*
X-82929934Y6403564D01*
X-82786497Y6260127D01*
X-82780937Y6252881D01*
X-82773010Y6244954D01*
X-82740153Y6199730D01*
X-82663014Y6099200D01*
X-82647148Y6071719D01*
X-82629955Y6048055D01*
X-82603436Y5996008D01*
X-82561591Y5923531D01*
X-82540227Y5871954D01*
X-82519463Y5831202D01*
X-82505330Y5787705D01*
X-82483966Y5736128D01*
X-82462307Y5655294D01*
X-82444254Y5599734D01*
X-82439679Y5570844D01*
X-82431466Y5540195D01*
X-82414926Y5414561D01*
X-82406181Y5359350D01*
X-82406181Y5348142D01*
X-82404988Y5339080D01*
X-82404988Y5136241D01*
X-82406181Y5127180D01*
X-82406181Y5115970D01*
X-82414927Y5060755D01*
X-82431466Y4935126D01*
X-82439678Y4904480D01*
X-82444254Y4875586D01*
X-82462309Y4820022D01*
X-82483966Y4739193D01*
X-82505329Y4687621D01*
X-82519463Y4644118D01*
X-82540229Y4603363D01*
X-82561591Y4551790D01*
X-82603432Y4479322D01*
X-82629955Y4427265D01*
X-82647151Y4403598D01*
X-82663014Y4376121D01*
X-82740139Y4275610D01*
X-82773010Y4230366D01*
X-82780941Y4222436D01*
X-82786497Y4215194D01*
X-82929934Y4071757D01*
X-82937176Y4066201D01*
X-82945106Y4058270D01*
X-82990350Y4025399D01*
X-83090861Y3948274D01*
X-83118338Y3932411D01*
X-83142005Y3915215D01*
X-83194062Y3888692D01*
X-83266530Y3846851D01*
X-83318103Y3825489D01*
X-83358858Y3804723D01*
X-83402361Y3790589D01*
X-83453933Y3769226D01*
X-83534762Y3747569D01*
X-83590326Y3729514D01*
X-83619220Y3724938D01*
X-83649866Y3716726D01*
X-83775498Y3700186D01*
X-83830710Y3691441D01*
X-83841919Y3691441D01*
X-83850980Y3690248D01*
X-84053820Y3690248D01*
X-84062881Y3691441D01*
X-84074090Y3691441D01*
X-84129301Y3700186D01*
X-84254935Y3716726D01*
X-84285584Y3724939D01*
X-84314474Y3729514D01*
X-84370034Y3747567D01*
X-84450868Y3769226D01*
X-84502445Y3790590D01*
X-84545942Y3804723D01*
X-84586694Y3825487D01*
X-84638271Y3846851D01*
X-84710748Y3888696D01*
X-84762795Y3915215D01*
X-84786459Y3932408D01*
X-84813940Y3948274D01*
X-84914470Y4025413D01*
X-84959694Y4058270D01*
X-84967621Y4066197D01*
X-84974867Y4071757D01*
X-85118304Y4215194D01*
X-85123865Y4222441D01*
X-85131790Y4230366D01*
X-85164644Y4275586D01*
X-85241787Y4376121D01*
X-85257655Y4403605D01*
X-85274845Y4427265D01*
X-85301362Y4479307D01*
X-85343210Y4551790D01*
X-85364577Y4603374D01*
X-85385337Y4644118D01*
X-85399469Y4687610D01*
X-85420835Y4739193D01*
X-85442498Y4820040D01*
X-85460546Y4875586D01*
X-85465121Y4904471D01*
X-85473335Y4935126D01*
X-85489876Y5060769D01*
X-85498619Y5115970D01*
X-85498619Y5127180D01*
X-85499812Y5136241D01*
X-85499812Y5339080D01*
X-85498619Y5348142D01*
X-85498619Y5359350D01*
X-85489877Y5414547D01*
X-85473335Y5540195D01*
X-85465121Y5570853D01*
X-85460546Y5599734D01*
X-85442500Y5655277D01*
X-85420835Y5736128D01*
X-85399467Y5787716D01*
X-85385337Y5831202D01*
X-85364579Y5871943D01*
X-85343210Y5923531D01*
X-85301358Y5996023D01*
X-85274845Y6048055D01*
X-85257658Y6071712D01*
X-85241787Y6099200D01*
X-85164630Y6199754D01*
X-85131790Y6244954D01*
X-85123868Y6252877D01*
X-85118304Y6260127D01*
X-84974867Y6403564D01*
X-84967617Y6409128D01*
X-84959694Y6417050D01*
X-84914494Y6449890D01*
X-84813940Y6527047D01*
X-84786452Y6542918D01*
X-84762795Y6560105D01*
X-84710763Y6586618D01*
X-84638271Y6628470D01*
X-84586683Y6649839D01*
X-84545942Y6670597D01*
X-84502456Y6684727D01*
X-84450868Y6706095D01*
X-84370017Y6727760D01*
X-84314474Y6745806D01*
X-84285593Y6750381D01*
X-84254935Y6758595D01*
X-84129287Y6775137D01*
X-84074090Y6783879D01*
X-84062882Y6783879D01*
X-84053820Y6785072D01*
X-83850980Y6785072D01*
X-83841918Y6783879D01*
G37*
G36*
X-113896106Y10672784D02*
G01*
X-113728215Y10603241D01*
X-113577117Y10502281D01*
X-113448619Y10373783D01*
X-113347659Y10222685D01*
X-113278116Y10054794D01*
X-113242664Y9876562D01*
X-113242664Y9694838D01*
X-113278116Y9516606D01*
X-113347659Y9348715D01*
X-113448619Y9197617D01*
X-113577117Y9069119D01*
X-113728215Y8968159D01*
X-113896106Y8898616D01*
X-114074338Y8863164D01*
X-114256062Y8863164D01*
X-114434294Y8898616D01*
X-114602185Y8968159D01*
X-114753283Y9069119D01*
X-114881781Y9197617D01*
X-114982741Y9348715D01*
X-115052284Y9516606D01*
X-115087736Y9694838D01*
X-115087736Y9876562D01*
X-115052284Y10054794D01*
X-114982741Y10222685D01*
X-114881781Y10373783D01*
X-114753283Y10502281D01*
X-114602185Y10603241D01*
X-114434294Y10672784D01*
X-114256062Y10708236D01*
X-114074338Y10708236D01*
X-113896106Y10672784D01*
G37*
G36*
X-110396106Y10672784D02*
G01*
X-110228215Y10603241D01*
X-110077117Y10502281D01*
X-109948619Y10373783D01*
X-109847659Y10222685D01*
X-109778116Y10054794D01*
X-109742664Y9876562D01*
X-109742664Y9694838D01*
X-109778116Y9516606D01*
X-109847659Y9348715D01*
X-109948619Y9197617D01*
X-110077117Y9069119D01*
X-110228215Y8968159D01*
X-110396106Y8898616D01*
X-110574338Y8863164D01*
X-110756062Y8863164D01*
X-110934294Y8898616D01*
X-111102185Y8968159D01*
X-111253283Y9069119D01*
X-111381781Y9197617D01*
X-111482741Y9348715D01*
X-111552284Y9516606D01*
X-111587736Y9694838D01*
X-111587736Y9876562D01*
X-111552284Y10054794D01*
X-111482741Y10222685D01*
X-111381781Y10373783D01*
X-111253283Y10502281D01*
X-111102185Y10603241D01*
X-110934294Y10672784D01*
X-110756062Y10708236D01*
X-110574338Y10708236D01*
X-110396106Y10672784D01*
G37*
G36*
X-106896106Y10672784D02*
G01*
X-106728215Y10603241D01*
X-106577117Y10502281D01*
X-106448619Y10373783D01*
X-106347659Y10222685D01*
X-106278116Y10054794D01*
X-106242664Y9876562D01*
X-106242664Y9694838D01*
X-106278116Y9516606D01*
X-106347659Y9348715D01*
X-106448619Y9197617D01*
X-106577117Y9069119D01*
X-106728215Y8968159D01*
X-106896106Y8898616D01*
X-107074338Y8863164D01*
X-107256062Y8863164D01*
X-107434294Y8898616D01*
X-107602185Y8968159D01*
X-107753283Y9069119D01*
X-107881781Y9197617D01*
X-107982741Y9348715D01*
X-108052284Y9516606D01*
X-108087736Y9694838D01*
X-108087736Y9876562D01*
X-108052284Y10054794D01*
X-107982741Y10222685D01*
X-107881781Y10373783D01*
X-107753283Y10502281D01*
X-107602185Y10603241D01*
X-107434294Y10672784D01*
X-107256062Y10708236D01*
X-107074338Y10708236D01*
X-106896106Y10672784D01*
G37*
G36*
X-99547106Y10672784D02*
G01*
X-99379215Y10603241D01*
X-99228117Y10502281D01*
X-99099619Y10373783D01*
X-98998659Y10222685D01*
X-98929116Y10054794D01*
X-98893664Y9876562D01*
X-98893664Y9694838D01*
X-98929116Y9516606D01*
X-98998659Y9348715D01*
X-99099619Y9197617D01*
X-99228117Y9069119D01*
X-99379215Y8968159D01*
X-99547106Y8898616D01*
X-99725338Y8863164D01*
X-99907062Y8863164D01*
X-100085294Y8898616D01*
X-100253185Y8968159D01*
X-100404283Y9069119D01*
X-100532781Y9197617D01*
X-100633741Y9348715D01*
X-100703284Y9516606D01*
X-100738736Y9694838D01*
X-100738736Y9876562D01*
X-100703284Y10054794D01*
X-100633741Y10222685D01*
X-100532781Y10373783D01*
X-100404283Y10502281D01*
X-100253185Y10603241D01*
X-100085294Y10672784D01*
X-99907062Y10708236D01*
X-99725338Y10708236D01*
X-99547106Y10672784D01*
G37*
G36*
X-96047106Y10672784D02*
G01*
X-95879215Y10603241D01*
X-95728117Y10502281D01*
X-95599619Y10373783D01*
X-95498659Y10222685D01*
X-95429116Y10054794D01*
X-95393664Y9876562D01*
X-95393664Y9694838D01*
X-95429116Y9516606D01*
X-95498659Y9348715D01*
X-95599619Y9197617D01*
X-95728117Y9069119D01*
X-95879215Y8968159D01*
X-96047106Y8898616D01*
X-96225338Y8863164D01*
X-96407062Y8863164D01*
X-96585294Y8898616D01*
X-96753185Y8968159D01*
X-96904283Y9069119D01*
X-97032781Y9197617D01*
X-97133741Y9348715D01*
X-97203284Y9516606D01*
X-97238736Y9694838D01*
X-97238736Y9876562D01*
X-97203284Y10054794D01*
X-97133741Y10222685D01*
X-97032781Y10373783D01*
X-96904283Y10502281D01*
X-96753185Y10603241D01*
X-96585294Y10672784D01*
X-96407062Y10708236D01*
X-96225338Y10708236D01*
X-96047106Y10672784D01*
G37*
G36*
X-92547106Y10672784D02*
G01*
X-92379215Y10603241D01*
X-92228117Y10502281D01*
X-92099619Y10373783D01*
X-91998659Y10222685D01*
X-91929116Y10054794D01*
X-91893664Y9876562D01*
X-91893664Y9694838D01*
X-91929116Y9516606D01*
X-91998659Y9348715D01*
X-92099619Y9197617D01*
X-92228117Y9069119D01*
X-92379215Y8968159D01*
X-92547106Y8898616D01*
X-92725338Y8863164D01*
X-92907062Y8863164D01*
X-93085294Y8898616D01*
X-93253185Y8968159D01*
X-93404283Y9069119D01*
X-93532781Y9197617D01*
X-93633741Y9348715D01*
X-93703284Y9516606D01*
X-93738736Y9694838D01*
X-93738736Y9876562D01*
X-93703284Y10054794D01*
X-93633741Y10222685D01*
X-93532781Y10373783D01*
X-93404283Y10502281D01*
X-93253185Y10603241D01*
X-93085294Y10672784D01*
X-92907062Y10708236D01*
X-92725338Y10708236D01*
X-92547106Y10672784D01*
G37*
G36*
X-113896106Y15672784D02*
G01*
X-113728215Y15603241D01*
X-113577117Y15502281D01*
X-113448619Y15373783D01*
X-113347659Y15222685D01*
X-113278116Y15054794D01*
X-113242664Y14876562D01*
X-113242664Y14694838D01*
X-113278116Y14516606D01*
X-113347659Y14348715D01*
X-113448619Y14197617D01*
X-113577117Y14069119D01*
X-113728215Y13968159D01*
X-113896106Y13898616D01*
X-114074338Y13863164D01*
X-114256062Y13863164D01*
X-114434294Y13898616D01*
X-114602185Y13968159D01*
X-114753283Y14069119D01*
X-114881781Y14197617D01*
X-114982741Y14348715D01*
X-115052284Y14516606D01*
X-115087736Y14694838D01*
X-115087736Y14876562D01*
X-115052284Y15054794D01*
X-114982741Y15222685D01*
X-114881781Y15373783D01*
X-114753283Y15502281D01*
X-114602185Y15603241D01*
X-114434294Y15672784D01*
X-114256062Y15708236D01*
X-114074338Y15708236D01*
X-113896106Y15672784D01*
G37*
G36*
X-110396106Y15672784D02*
G01*
X-110228215Y15603241D01*
X-110077117Y15502281D01*
X-109948619Y15373783D01*
X-109847659Y15222685D01*
X-109778116Y15054794D01*
X-109742664Y14876562D01*
X-109742664Y14694838D01*
X-109778116Y14516606D01*
X-109847659Y14348715D01*
X-109948619Y14197617D01*
X-110077117Y14069119D01*
X-110228215Y13968159D01*
X-110396106Y13898616D01*
X-110574338Y13863164D01*
X-110756062Y13863164D01*
X-110934294Y13898616D01*
X-111102185Y13968159D01*
X-111253283Y14069119D01*
X-111381781Y14197617D01*
X-111482741Y14348715D01*
X-111552284Y14516606D01*
X-111587736Y14694838D01*
X-111587736Y14876562D01*
X-111552284Y15054794D01*
X-111482741Y15222685D01*
X-111381781Y15373783D01*
X-111253283Y15502281D01*
X-111102185Y15603241D01*
X-110934294Y15672784D01*
X-110756062Y15708236D01*
X-110574338Y15708236D01*
X-110396106Y15672784D01*
G37*
G36*
X-106896106Y15672784D02*
G01*
X-106728215Y15603241D01*
X-106577117Y15502281D01*
X-106448619Y15373783D01*
X-106347659Y15222685D01*
X-106278116Y15054794D01*
X-106242664Y14876562D01*
X-106242664Y14694838D01*
X-106278116Y14516606D01*
X-106347659Y14348715D01*
X-106448619Y14197617D01*
X-106577117Y14069119D01*
X-106728215Y13968159D01*
X-106896106Y13898616D01*
X-107074338Y13863164D01*
X-107256062Y13863164D01*
X-107434294Y13898616D01*
X-107602185Y13968159D01*
X-107753283Y14069119D01*
X-107881781Y14197617D01*
X-107982741Y14348715D01*
X-108052284Y14516606D01*
X-108087736Y14694838D01*
X-108087736Y14876562D01*
X-108052284Y15054794D01*
X-107982741Y15222685D01*
X-107881781Y15373783D01*
X-107753283Y15502281D01*
X-107602185Y15603241D01*
X-107434294Y15672784D01*
X-107256062Y15708236D01*
X-107074338Y15708236D01*
X-106896106Y15672784D01*
G37*
G36*
X-99547106Y15672784D02*
G01*
X-99379215Y15603241D01*
X-99228117Y15502281D01*
X-99099619Y15373783D01*
X-98998659Y15222685D01*
X-98929116Y15054794D01*
X-98893664Y14876562D01*
X-98893664Y14694838D01*
X-98929116Y14516606D01*
X-98998659Y14348715D01*
X-99099619Y14197617D01*
X-99228117Y14069119D01*
X-99379215Y13968159D01*
X-99547106Y13898616D01*
X-99725338Y13863164D01*
X-99907062Y13863164D01*
X-100085294Y13898616D01*
X-100253185Y13968159D01*
X-100404283Y14069119D01*
X-100532781Y14197617D01*
X-100633741Y14348715D01*
X-100703284Y14516606D01*
X-100738736Y14694838D01*
X-100738736Y14876562D01*
X-100703284Y15054794D01*
X-100633741Y15222685D01*
X-100532781Y15373783D01*
X-100404283Y15502281D01*
X-100253185Y15603241D01*
X-100085294Y15672784D01*
X-99907062Y15708236D01*
X-99725338Y15708236D01*
X-99547106Y15672784D01*
G37*
G36*
X-96047106Y15672784D02*
G01*
X-95879215Y15603241D01*
X-95728117Y15502281D01*
X-95599619Y15373783D01*
X-95498659Y15222685D01*
X-95429116Y15054794D01*
X-95393664Y14876562D01*
X-95393664Y14694838D01*
X-95429116Y14516606D01*
X-95498659Y14348715D01*
X-95599619Y14197617D01*
X-95728117Y14069119D01*
X-95879215Y13968159D01*
X-96047106Y13898616D01*
X-96225338Y13863164D01*
X-96407062Y13863164D01*
X-96585294Y13898616D01*
X-96753185Y13968159D01*
X-96904283Y14069119D01*
X-97032781Y14197617D01*
X-97133741Y14348715D01*
X-97203284Y14516606D01*
X-97238736Y14694838D01*
X-97238736Y14876562D01*
X-97203284Y15054794D01*
X-97133741Y15222685D01*
X-97032781Y15373783D01*
X-96904283Y15502281D01*
X-96753185Y15603241D01*
X-96585294Y15672784D01*
X-96407062Y15708236D01*
X-96225338Y15708236D01*
X-96047106Y15672784D01*
G37*
G36*
X-92547106Y15672784D02*
G01*
X-92379215Y15603241D01*
X-92228117Y15502281D01*
X-92099619Y15373783D01*
X-91998659Y15222685D01*
X-91929116Y15054794D01*
X-91893664Y14876562D01*
X-91893664Y14694838D01*
X-91929116Y14516606D01*
X-91998659Y14348715D01*
X-92099619Y14197617D01*
X-92228117Y14069119D01*
X-92379215Y13968159D01*
X-92547106Y13898616D01*
X-92725338Y13863164D01*
X-92907062Y13863164D01*
X-93085294Y13898616D01*
X-93253185Y13968159D01*
X-93404283Y14069119D01*
X-93532781Y14197617D01*
X-93633741Y14348715D01*
X-93703284Y14516606D01*
X-93738736Y14694838D01*
X-93738736Y14876562D01*
X-93703284Y15054794D01*
X-93633741Y15222685D01*
X-93532781Y15373783D01*
X-93404283Y15502281D01*
X-93253185Y15603241D01*
X-93085294Y15672784D01*
X-92907062Y15708236D01*
X-92725338Y15708236D01*
X-92547106Y15672784D01*
G37*
G36*
X-82404654Y24917903D02*
G01*
X-82241472Y24850311D01*
X-82094612Y24752182D01*
X-81969718Y24627288D01*
X-81871589Y24480428D01*
X-81803997Y24317246D01*
X-81769539Y24144013D01*
X-81769539Y23967387D01*
X-81803997Y23794154D01*
X-81871589Y23630972D01*
X-81969718Y23484112D01*
X-82094612Y23359218D01*
X-82241472Y23261089D01*
X-82404654Y23193497D01*
X-82577887Y23159039D01*
X-82754513Y23159039D01*
X-82927746Y23193497D01*
X-83090928Y23261089D01*
X-83237788Y23359218D01*
X-83362682Y23484112D01*
X-83460811Y23630972D01*
X-83528403Y23794154D01*
X-83562861Y23967387D01*
X-83562861Y24144013D01*
X-83528403Y24317246D01*
X-83460811Y24480428D01*
X-83362682Y24627288D01*
X-83237788Y24752182D01*
X-83090928Y24850311D01*
X-82927746Y24917903D01*
X-82754513Y24952361D01*
X-82577887Y24952361D01*
X-82404654Y24917903D01*
G37*
G36*
X-79006464Y24617326D02*
G01*
X-78995894Y24617326D01*
X-78965440Y24609166D01*
X-78908793Y24597898D01*
X-78882058Y24586824D01*
X-78858140Y24580415D01*
X-78836696Y24568035D01*
X-78809963Y24556961D01*
X-78761949Y24524879D01*
X-78734634Y24509109D01*
X-78727158Y24501633D01*
X-78721016Y24497529D01*
X-78645372Y24421885D01*
X-78641269Y24415744D01*
X-78633791Y24408266D01*
X-78618019Y24380949D01*
X-78585940Y24332938D01*
X-78574869Y24306209D01*
X-78562485Y24284760D01*
X-78556076Y24260839D01*
X-78545003Y24234108D01*
X-78533736Y24177465D01*
X-78525574Y24147006D01*
X-78525574Y24136438D01*
X-78524132Y24129188D01*
X-78524132Y24022213D01*
X-78525574Y24014964D01*
X-78525574Y24004394D01*
X-78533737Y23973933D01*
X-78545003Y23917293D01*
X-78556075Y23890564D01*
X-78562485Y23866640D01*
X-78574870Y23845190D01*
X-78585940Y23818463D01*
X-78618015Y23770460D01*
X-78633791Y23743134D01*
X-78641271Y23735655D01*
X-78645372Y23729516D01*
X-78721016Y23653872D01*
X-78727155Y23649771D01*
X-78734634Y23642291D01*
X-78761960Y23626515D01*
X-78809963Y23594440D01*
X-78836690Y23583370D01*
X-78858140Y23570985D01*
X-78882064Y23564575D01*
X-78908793Y23553503D01*
X-78965433Y23542237D01*
X-78995894Y23534074D01*
X-79006464Y23534074D01*
X-79013713Y23532632D01*
X-79120687Y23532632D01*
X-79127936Y23534074D01*
X-79138506Y23534074D01*
X-79168966Y23542236D01*
X-79225608Y23553503D01*
X-79252339Y23564576D01*
X-79276260Y23570985D01*
X-79297709Y23583369D01*
X-79324438Y23594440D01*
X-79372449Y23626519D01*
X-79399766Y23642291D01*
X-79407244Y23649769D01*
X-79413385Y23653872D01*
X-79489029Y23729516D01*
X-79493133Y23735658D01*
X-79500609Y23743134D01*
X-79516379Y23770449D01*
X-79548461Y23818463D01*
X-79559535Y23845196D01*
X-79571915Y23866640D01*
X-79578324Y23890558D01*
X-79589398Y23917293D01*
X-79600666Y23973940D01*
X-79608826Y24004394D01*
X-79608826Y24014964D01*
X-79610268Y24022213D01*
X-79610268Y24129188D01*
X-79608826Y24136438D01*
X-79608826Y24147006D01*
X-79600667Y24177458D01*
X-79589398Y24234108D01*
X-79578323Y24260846D01*
X-79571915Y24284760D01*
X-79559536Y24306203D01*
X-79548461Y24332938D01*
X-79516375Y24380960D01*
X-79500609Y24408266D01*
X-79493135Y24415741D01*
X-79489029Y24421885D01*
X-79413385Y24497529D01*
X-79407241Y24501635D01*
X-79399766Y24509109D01*
X-79372460Y24524875D01*
X-79324438Y24556961D01*
X-79297703Y24568036D01*
X-79276260Y24580415D01*
X-79252346Y24586823D01*
X-79225608Y24597898D01*
X-79168960Y24609167D01*
X-79138506Y24617326D01*
X-79127936Y24617326D01*
X-79120687Y24618768D01*
X-79013713Y24618768D01*
X-79006464Y24617326D01*
G37*
G36*
X-76974464Y24617326D02*
G01*
X-76963894Y24617326D01*
X-76933440Y24609166D01*
X-76876793Y24597898D01*
X-76850058Y24586824D01*
X-76826140Y24580415D01*
X-76804696Y24568035D01*
X-76777963Y24556961D01*
X-76729949Y24524879D01*
X-76702634Y24509109D01*
X-76695158Y24501633D01*
X-76689016Y24497529D01*
X-76613372Y24421885D01*
X-76609269Y24415744D01*
X-76601791Y24408266D01*
X-76586019Y24380949D01*
X-76553940Y24332938D01*
X-76542869Y24306209D01*
X-76530485Y24284760D01*
X-76524076Y24260839D01*
X-76513003Y24234108D01*
X-76501736Y24177465D01*
X-76493574Y24147006D01*
X-76493574Y24136438D01*
X-76492132Y24129188D01*
X-76492132Y24022213D01*
X-76493574Y24014964D01*
X-76493574Y24004394D01*
X-76501737Y23973933D01*
X-76513003Y23917293D01*
X-76524075Y23890564D01*
X-76530485Y23866640D01*
X-76542870Y23845190D01*
X-76553940Y23818463D01*
X-76586015Y23770460D01*
X-76601791Y23743134D01*
X-76609271Y23735655D01*
X-76613372Y23729516D01*
X-76689016Y23653872D01*
X-76695155Y23649771D01*
X-76702634Y23642291D01*
X-76729960Y23626515D01*
X-76777963Y23594440D01*
X-76804690Y23583370D01*
X-76826140Y23570985D01*
X-76850064Y23564575D01*
X-76876793Y23553503D01*
X-76933433Y23542237D01*
X-76963894Y23534074D01*
X-76974464Y23534074D01*
X-76981713Y23532632D01*
X-77088687Y23532632D01*
X-77095936Y23534074D01*
X-77106506Y23534074D01*
X-77136966Y23542236D01*
X-77193608Y23553503D01*
X-77220339Y23564576D01*
X-77244260Y23570985D01*
X-77265709Y23583369D01*
X-77292438Y23594440D01*
X-77340449Y23626519D01*
X-77367766Y23642291D01*
X-77375244Y23649769D01*
X-77381385Y23653872D01*
X-77457029Y23729516D01*
X-77461133Y23735658D01*
X-77468609Y23743134D01*
X-77484379Y23770449D01*
X-77516461Y23818463D01*
X-77527535Y23845196D01*
X-77539915Y23866640D01*
X-77546324Y23890558D01*
X-77557398Y23917293D01*
X-77568666Y23973940D01*
X-77576826Y24004394D01*
X-77576826Y24014964D01*
X-77578268Y24022213D01*
X-77578268Y24129188D01*
X-77576826Y24136438D01*
X-77576826Y24147006D01*
X-77568667Y24177458D01*
X-77557398Y24234108D01*
X-77546323Y24260846D01*
X-77539915Y24284760D01*
X-77527536Y24306203D01*
X-77516461Y24332938D01*
X-77484375Y24380960D01*
X-77468609Y24408266D01*
X-77461135Y24415741D01*
X-77457029Y24421885D01*
X-77381385Y24497529D01*
X-77375241Y24501635D01*
X-77367766Y24509109D01*
X-77340460Y24524875D01*
X-77292438Y24556961D01*
X-77265703Y24568036D01*
X-77244260Y24580415D01*
X-77220346Y24586823D01*
X-77193608Y24597898D01*
X-77136960Y24609167D01*
X-77106506Y24617326D01*
X-77095936Y24617326D01*
X-77088687Y24618768D01*
X-76981713Y24618768D01*
X-76974464Y24617326D01*
G37*
G36*
X-82404654Y27457903D02*
G01*
X-82241472Y27390311D01*
X-82094612Y27292182D01*
X-81969718Y27167288D01*
X-81871589Y27020428D01*
X-81803997Y26857246D01*
X-81769539Y26684013D01*
X-81769539Y26507387D01*
X-81803997Y26334154D01*
X-81871589Y26170972D01*
X-81969718Y26024112D01*
X-82094612Y25899218D01*
X-82241472Y25801089D01*
X-82404654Y25733497D01*
X-82577887Y25699039D01*
X-82754513Y25699039D01*
X-82927746Y25733497D01*
X-83090928Y25801089D01*
X-83237788Y25899218D01*
X-83362682Y26024112D01*
X-83460811Y26170972D01*
X-83528403Y26334154D01*
X-83562861Y26507387D01*
X-83562861Y26684013D01*
X-83528403Y26857246D01*
X-83460811Y27020428D01*
X-83362682Y27167288D01*
X-83237788Y27292182D01*
X-83090928Y27390311D01*
X-82927746Y27457903D01*
X-82754513Y27492361D01*
X-82577887Y27492361D01*
X-82404654Y27457903D01*
G37*
G36*
X-81796683Y30032818D02*
G01*
X-81780138Y30021762D01*
X-81769082Y30005217D01*
X-81765200Y29985700D01*
X-81765200Y28285700D01*
X-81769082Y28266183D01*
X-81780138Y28249638D01*
X-81796683Y28238582D01*
X-81816200Y28234700D01*
X-83516200Y28234700D01*
X-83535717Y28238582D01*
X-83552262Y28249638D01*
X-83563318Y28266183D01*
X-83567200Y28285700D01*
X-83567200Y29985700D01*
X-83563318Y30005217D01*
X-83552262Y30021762D01*
X-83535717Y30032818D01*
X-83516200Y30036700D01*
X-81816200Y30036700D01*
X-81796683Y30032818D01*
G37*
G36*
X-77990464Y29697326D02*
G01*
X-77979894Y29697326D01*
X-77949440Y29689166D01*
X-77892793Y29677898D01*
X-77866058Y29666824D01*
X-77842140Y29660415D01*
X-77820696Y29648035D01*
X-77793963Y29636961D01*
X-77745949Y29604879D01*
X-77718634Y29589109D01*
X-77711158Y29581633D01*
X-77705016Y29577529D01*
X-77629372Y29501885D01*
X-77625269Y29495744D01*
X-77617791Y29488266D01*
X-77602019Y29460949D01*
X-77569940Y29412938D01*
X-77558869Y29386209D01*
X-77546485Y29364760D01*
X-77540076Y29340839D01*
X-77529003Y29314108D01*
X-77517736Y29257465D01*
X-77509574Y29227006D01*
X-77509574Y29216438D01*
X-77508132Y29209188D01*
X-77508132Y29102213D01*
X-77509574Y29094964D01*
X-77509574Y29084394D01*
X-77517737Y29053933D01*
X-77529003Y28997293D01*
X-77540075Y28970564D01*
X-77546485Y28946640D01*
X-77558870Y28925190D01*
X-77569940Y28898463D01*
X-77602015Y28850460D01*
X-77617791Y28823134D01*
X-77625271Y28815655D01*
X-77629372Y28809516D01*
X-77705016Y28733872D01*
X-77711155Y28729771D01*
X-77718634Y28722291D01*
X-77745960Y28706515D01*
X-77793963Y28674440D01*
X-77820690Y28663370D01*
X-77842140Y28650985D01*
X-77866064Y28644575D01*
X-77892793Y28633503D01*
X-77949433Y28622237D01*
X-77979894Y28614074D01*
X-77990464Y28614074D01*
X-77997713Y28612632D01*
X-78104687Y28612632D01*
X-78111936Y28614074D01*
X-78122506Y28614074D01*
X-78152966Y28622236D01*
X-78209608Y28633503D01*
X-78236339Y28644576D01*
X-78260260Y28650985D01*
X-78281709Y28663369D01*
X-78308438Y28674440D01*
X-78356449Y28706519D01*
X-78383766Y28722291D01*
X-78391244Y28729769D01*
X-78397385Y28733872D01*
X-78473029Y28809516D01*
X-78477133Y28815658D01*
X-78484609Y28823134D01*
X-78500379Y28850449D01*
X-78532461Y28898463D01*
X-78543535Y28925196D01*
X-78555915Y28946640D01*
X-78562324Y28970558D01*
X-78573398Y28997293D01*
X-78584666Y29053940D01*
X-78592826Y29084394D01*
X-78592826Y29094964D01*
X-78594268Y29102213D01*
X-78594268Y29209188D01*
X-78592826Y29216438D01*
X-78592826Y29227006D01*
X-78584667Y29257458D01*
X-78573398Y29314108D01*
X-78562323Y29340846D01*
X-78555915Y29364760D01*
X-78543536Y29386203D01*
X-78532461Y29412938D01*
X-78500375Y29460960D01*
X-78484609Y29488266D01*
X-78477135Y29495741D01*
X-78473029Y29501885D01*
X-78397385Y29577529D01*
X-78391241Y29581635D01*
X-78383766Y29589109D01*
X-78356460Y29604875D01*
X-78308438Y29636961D01*
X-78281703Y29648036D01*
X-78260260Y29660415D01*
X-78236346Y29666823D01*
X-78209608Y29677898D01*
X-78152960Y29689167D01*
X-78122506Y29697326D01*
X-78111936Y29697326D01*
X-78104687Y29698768D01*
X-77997713Y29698768D01*
X-77990464Y29697326D01*
G37*
G36*
X-120023682Y36594209D02*
G01*
X-119878611Y36534119D01*
X-119748051Y36446881D01*
X-119637019Y36335849D01*
X-119549781Y36205289D01*
X-119489691Y36060218D01*
X-119459057Y35906212D01*
X-119459057Y35749188D01*
X-119489691Y35595182D01*
X-119549781Y35450111D01*
X-119637019Y35319551D01*
X-119748051Y35208519D01*
X-119878611Y35121281D01*
X-120023682Y35061191D01*
X-120177688Y35030557D01*
X-120334712Y35030557D01*
X-120488718Y35061191D01*
X-120633789Y35121281D01*
X-120764349Y35208519D01*
X-120875381Y35319551D01*
X-120962619Y35450111D01*
X-121022709Y35595182D01*
X-121053343Y35749188D01*
X-121053343Y35906212D01*
X-121022709Y36060218D01*
X-120962619Y36205289D01*
X-120875381Y36335849D01*
X-120764349Y36446881D01*
X-120633789Y36534119D01*
X-120488718Y36594209D01*
X-120334712Y36624843D01*
X-120177688Y36624843D01*
X-120023682Y36594209D01*
G37*
G36*
X-117483682Y36594209D02*
G01*
X-117338611Y36534119D01*
X-117208051Y36446881D01*
X-117097019Y36335849D01*
X-117009781Y36205289D01*
X-116949691Y36060218D01*
X-116919057Y35906212D01*
X-116919057Y35749188D01*
X-116949691Y35595182D01*
X-117009781Y35450111D01*
X-117097019Y35319551D01*
X-117208051Y35208519D01*
X-117338611Y35121281D01*
X-117483682Y35061191D01*
X-117637688Y35030557D01*
X-117794712Y35030557D01*
X-117948718Y35061191D01*
X-118093789Y35121281D01*
X-118224349Y35208519D01*
X-118335381Y35319551D01*
X-118422619Y35450111D01*
X-118482709Y35595182D01*
X-118513343Y35749188D01*
X-118513343Y35906212D01*
X-118482709Y36060218D01*
X-118422619Y36205289D01*
X-118335381Y36335849D01*
X-118224349Y36446881D01*
X-118093789Y36534119D01*
X-117948718Y36594209D01*
X-117794712Y36624843D01*
X-117637688Y36624843D01*
X-117483682Y36594209D01*
G37*
G36*
X-114943682Y36594209D02*
G01*
X-114798611Y36534119D01*
X-114668051Y36446881D01*
X-114557019Y36335849D01*
X-114469781Y36205289D01*
X-114409691Y36060218D01*
X-114379057Y35906212D01*
X-114379057Y35749188D01*
X-114409691Y35595182D01*
X-114469781Y35450111D01*
X-114557019Y35319551D01*
X-114668051Y35208519D01*
X-114798611Y35121281D01*
X-114943682Y35061191D01*
X-115097688Y35030557D01*
X-115254712Y35030557D01*
X-115408718Y35061191D01*
X-115553789Y35121281D01*
X-115684349Y35208519D01*
X-115795381Y35319551D01*
X-115882619Y35450111D01*
X-115942709Y35595182D01*
X-115973343Y35749188D01*
X-115973343Y35906212D01*
X-115942709Y36060218D01*
X-115882619Y36205289D01*
X-115795381Y36335849D01*
X-115684349Y36446881D01*
X-115553789Y36534119D01*
X-115408718Y36594209D01*
X-115254712Y36624843D01*
X-115097688Y36624843D01*
X-114943682Y36594209D01*
G37*
G36*
X-112403682Y36594209D02*
G01*
X-112258611Y36534119D01*
X-112128051Y36446881D01*
X-112017019Y36335849D01*
X-111929781Y36205289D01*
X-111869691Y36060218D01*
X-111839057Y35906212D01*
X-111839057Y35749188D01*
X-111869691Y35595182D01*
X-111929781Y35450111D01*
X-112017019Y35319551D01*
X-112128051Y35208519D01*
X-112258611Y35121281D01*
X-112403682Y35061191D01*
X-112557688Y35030557D01*
X-112714712Y35030557D01*
X-112868718Y35061191D01*
X-113013789Y35121281D01*
X-113144349Y35208519D01*
X-113255381Y35319551D01*
X-113342619Y35450111D01*
X-113402709Y35595182D01*
X-113433343Y35749188D01*
X-113433343Y35906212D01*
X-113402709Y36060218D01*
X-113342619Y36205289D01*
X-113255381Y36335849D01*
X-113144349Y36446881D01*
X-113013789Y36534119D01*
X-112868718Y36594209D01*
X-112714712Y36624843D01*
X-112557688Y36624843D01*
X-112403682Y36594209D01*
G37*
G36*
X-128015333Y40028173D02*
G01*
X-127775144Y39963814D01*
X-127545409Y39868655D01*
X-127330061Y39744324D01*
X-127132784Y39592947D01*
X-126956953Y39417116D01*
X-126805576Y39219839D01*
X-126681245Y39004491D01*
X-126586086Y38774756D01*
X-126521727Y38534567D01*
X-126489270Y38288031D01*
X-126489270Y38039369D01*
X-126521727Y37792833D01*
X-126586086Y37552644D01*
X-126681245Y37322909D01*
X-126805576Y37107561D01*
X-126956953Y36910284D01*
X-127132784Y36734453D01*
X-127330061Y36583076D01*
X-127545409Y36458745D01*
X-127775144Y36363586D01*
X-128015333Y36299227D01*
X-128261869Y36266770D01*
X-128510531Y36266770D01*
X-128757067Y36299227D01*
X-128997256Y36363586D01*
X-129226991Y36458745D01*
X-129442339Y36583076D01*
X-129639616Y36734453D01*
X-129815447Y36910284D01*
X-129966824Y37107561D01*
X-130091155Y37322909D01*
X-130186314Y37552644D01*
X-130250673Y37792833D01*
X-130283130Y38039369D01*
X-130283130Y38288031D01*
X-130250673Y38534567D01*
X-130186314Y38774756D01*
X-130091155Y39004491D01*
X-129966824Y39219839D01*
X-129815447Y39417116D01*
X-129639616Y39592947D01*
X-129442339Y39744324D01*
X-129226991Y39868655D01*
X-128997256Y39963814D01*
X-128757067Y40028173D01*
X-128510531Y40060630D01*
X-128261869Y40060630D01*
X-128015333Y40028173D01*
G37*
G36*
X-77215333Y40028173D02*
G01*
X-76975144Y39963814D01*
X-76745409Y39868655D01*
X-76530061Y39744324D01*
X-76332784Y39592947D01*
X-76156953Y39417116D01*
X-76005576Y39219839D01*
X-75881245Y39004491D01*
X-75786086Y38774756D01*
X-75721727Y38534567D01*
X-75689270Y38288031D01*
X-75689270Y38039369D01*
X-75721727Y37792833D01*
X-75786086Y37552644D01*
X-75881245Y37322909D01*
X-76005576Y37107561D01*
X-76156953Y36910284D01*
X-76332784Y36734453D01*
X-76530061Y36583076D01*
X-76745409Y36458745D01*
X-76975144Y36363586D01*
X-77215333Y36299227D01*
X-77461869Y36266770D01*
X-77710531Y36266770D01*
X-77957067Y36299227D01*
X-78197256Y36363586D01*
X-78426991Y36458745D01*
X-78642339Y36583076D01*
X-78839616Y36734453D01*
X-79015447Y36910284D01*
X-79166824Y37107561D01*
X-79291155Y37322909D01*
X-79386314Y37552644D01*
X-79450673Y37792833D01*
X-79483130Y38039369D01*
X-79483130Y38288031D01*
X-79450673Y38534567D01*
X-79386314Y38774756D01*
X-79291155Y39004491D01*
X-79166824Y39219839D01*
X-79015447Y39417116D01*
X-78839616Y39592947D01*
X-78642339Y39744324D01*
X-78426991Y39868655D01*
X-78197256Y39963814D01*
X-77957067Y40028173D01*
X-77710531Y40060630D01*
X-77461869Y40060630D01*
X-77215333Y40028173D01*
G37*
G36*
X-110596683Y39164818D02*
G01*
X-110580138Y39153762D01*
X-110569082Y39137217D01*
X-110565200Y39117700D01*
X-110565200Y37617700D01*
X-110569082Y37598183D01*
X-110580138Y37581638D01*
X-110596683Y37570582D01*
X-110616200Y37566700D01*
X-112116200Y37566700D01*
X-112135717Y37570582D01*
X-112152262Y37581638D01*
X-112163318Y37598183D01*
X-112167200Y37617700D01*
X-112167200Y39117700D01*
X-112163318Y39137217D01*
X-112152262Y39153762D01*
X-112135717Y39164818D01*
X-112116200Y39168700D01*
X-110616200Y39168700D01*
X-110596683Y39164818D01*
G37*
G36*
X-118753682Y39134209D02*
G01*
X-118608611Y39074119D01*
X-118478051Y38986881D01*
X-118367019Y38875849D01*
X-118279781Y38745289D01*
X-118219691Y38600218D01*
X-118189057Y38446212D01*
X-118189057Y38289188D01*
X-118219691Y38135182D01*
X-118279781Y37990111D01*
X-118367019Y37859551D01*
X-118478051Y37748519D01*
X-118608611Y37661281D01*
X-118753682Y37601191D01*
X-118907688Y37570557D01*
X-119064712Y37570557D01*
X-119218718Y37601191D01*
X-119363789Y37661281D01*
X-119494349Y37748519D01*
X-119605381Y37859551D01*
X-119692619Y37990111D01*
X-119752709Y38135182D01*
X-119783343Y38289188D01*
X-119783343Y38446212D01*
X-119752709Y38600218D01*
X-119692619Y38745289D01*
X-119605381Y38875849D01*
X-119494349Y38986881D01*
X-119363789Y39074119D01*
X-119218718Y39134209D01*
X-119064712Y39164843D01*
X-118907688Y39164843D01*
X-118753682Y39134209D01*
G37*
G36*
X-116213682Y39134209D02*
G01*
X-116068611Y39074119D01*
X-115938051Y38986881D01*
X-115827019Y38875849D01*
X-115739781Y38745289D01*
X-115679691Y38600218D01*
X-115649057Y38446212D01*
X-115649057Y38289188D01*
X-115679691Y38135182D01*
X-115739781Y37990111D01*
X-115827019Y37859551D01*
X-115938051Y37748519D01*
X-116068611Y37661281D01*
X-116213682Y37601191D01*
X-116367688Y37570557D01*
X-116524712Y37570557D01*
X-116678718Y37601191D01*
X-116823789Y37661281D01*
X-116954349Y37748519D01*
X-117065381Y37859551D01*
X-117152619Y37990111D01*
X-117212709Y38135182D01*
X-117243343Y38289188D01*
X-117243343Y38446212D01*
X-117212709Y38600218D01*
X-117152619Y38745289D01*
X-117065381Y38875849D01*
X-116954349Y38986881D01*
X-116823789Y39074119D01*
X-116678718Y39134209D01*
X-116524712Y39164843D01*
X-116367688Y39164843D01*
X-116213682Y39134209D01*
G37*
G36*
X-113673682Y39134209D02*
G01*
X-113528611Y39074119D01*
X-113398051Y38986881D01*
X-113287019Y38875849D01*
X-113199781Y38745289D01*
X-113139691Y38600218D01*
X-113109057Y38446212D01*
X-113109057Y38289188D01*
X-113139691Y38135182D01*
X-113199781Y37990111D01*
X-113287019Y37859551D01*
X-113398051Y37748519D01*
X-113528611Y37661281D01*
X-113673682Y37601191D01*
X-113827688Y37570557D01*
X-113984712Y37570557D01*
X-114138718Y37601191D01*
X-114283789Y37661281D01*
X-114414349Y37748519D01*
X-114525381Y37859551D01*
X-114612619Y37990111D01*
X-114672709Y38135182D01*
X-114703343Y38289188D01*
X-114703343Y38446212D01*
X-114672709Y38600218D01*
X-114612619Y38745289D01*
X-114525381Y38875849D01*
X-114414349Y38986881D01*
X-114283789Y39074119D01*
X-114138718Y39134209D01*
X-113984712Y39164843D01*
X-113827688Y39164843D01*
X-113673682Y39134209D01*
G37*
G36*
X-121194351Y46386016D02*
G01*
X-120979431Y46328428D01*
X-120773867Y46243281D01*
X-120581175Y46132030D01*
X-120404653Y45996580D01*
X-120247320Y45839247D01*
X-120111870Y45662725D01*
X-120000619Y45470033D01*
X-119915472Y45264469D01*
X-119857884Y45049549D01*
X-119828842Y44828951D01*
X-119828842Y44606449D01*
X-119857884Y44385851D01*
X-119915472Y44170931D01*
X-120000619Y43965367D01*
X-120111870Y43772675D01*
X-120247320Y43596153D01*
X-120404653Y43438820D01*
X-120581175Y43303370D01*
X-120773867Y43192119D01*
X-120979431Y43106972D01*
X-121194351Y43049384D01*
X-121414949Y43020342D01*
X-121637451Y43020342D01*
X-121858049Y43049384D01*
X-122072969Y43106972D01*
X-122278533Y43192119D01*
X-122471225Y43303370D01*
X-122647747Y43438820D01*
X-122805080Y43596153D01*
X-122940530Y43772675D01*
X-123051781Y43965367D01*
X-123136928Y44170931D01*
X-123194516Y44385851D01*
X-123223558Y44606449D01*
X-123223558Y44828951D01*
X-123194516Y45049549D01*
X-123136928Y45264469D01*
X-123051781Y45470033D01*
X-122940530Y45662725D01*
X-122805080Y45839247D01*
X-122647747Y45996580D01*
X-122471225Y46132030D01*
X-122278533Y46243281D01*
X-122072969Y46328428D01*
X-121858049Y46386016D01*
X-121637451Y46415058D01*
X-121414949Y46415058D01*
X-121194351Y46386016D01*
G37*
G36*
X-109764351Y46386016D02*
G01*
X-109549431Y46328428D01*
X-109343867Y46243281D01*
X-109151175Y46132030D01*
X-108974653Y45996580D01*
X-108817320Y45839247D01*
X-108681870Y45662725D01*
X-108570619Y45470033D01*
X-108485472Y45264469D01*
X-108427884Y45049549D01*
X-108398842Y44828951D01*
X-108398842Y44606449D01*
X-108427884Y44385851D01*
X-108485472Y44170931D01*
X-108570619Y43965367D01*
X-108681870Y43772675D01*
X-108817320Y43596153D01*
X-108974653Y43438820D01*
X-109151175Y43303370D01*
X-109343867Y43192119D01*
X-109549431Y43106972D01*
X-109764351Y43049384D01*
X-109984949Y43020342D01*
X-110207451Y43020342D01*
X-110428049Y43049384D01*
X-110642969Y43106972D01*
X-110848533Y43192119D01*
X-111041225Y43303370D01*
X-111217747Y43438820D01*
X-111375080Y43596153D01*
X-111510530Y43772675D01*
X-111621781Y43965367D01*
X-111706928Y44170931D01*
X-111764516Y44385851D01*
X-111793558Y44606449D01*
X-111793558Y44828951D01*
X-111764516Y45049549D01*
X-111706928Y45264469D01*
X-111621781Y45470033D01*
X-111510530Y45662725D01*
X-111375080Y45839247D01*
X-111217747Y45996580D01*
X-111041225Y46132030D01*
X-110848533Y46243281D01*
X-110642969Y46328428D01*
X-110428049Y46386016D01*
X-110207451Y46415058D01*
X-109984949Y46415058D01*
X-109764351Y46386016D01*
G37*
M02*
